<svg id="Layer_1" data-name="Layer 1" xmlns="http://www.w3.org/2000/svg" viewBox="0 0 31.31 30.54"><defs><style>.cls-1{fill:#181616;fill-rule:evenodd;}</style></defs><title>github-icon</title><path class="cls-1" d="M16,.73a15.66,15.66,0,0,0-4.95,30.51c.78.14,1.07-.34,1.07-.75s0-1.36,0-2.66c-4.35.95-5.27-2.1-5.27-2.1a4.15,4.15,0,0,0-1.74-2.29c-1.42-1,.11-1,.11-1a3.29,3.29,0,0,1,2.4,1.61,3.33,3.33,0,0,0,4.56,1.3,3.35,3.35,0,0,1,1-2.09C9.67,22.91,6,21.57,6,15.57a6.05,6.05,0,0,1,1.61-4.2,5.63,5.63,0,0,1,.15-4.14s1.31-.42,4.31,1.6a14.84,14.84,0,0,1,7.84,0c3-2,4.3-1.6,4.3-1.6a5.62,5.62,0,0,1,.16,4.14A6,6,0,0,1,26,15.57c0,6-3.66,7.34-7.15,7.73a3.74,3.74,0,0,1,1.06,2.9c0,2.09,0,3.78,0,4.29s.28.91,1.08.75A15.66,15.66,0,0,0,16,.73Z" transform="translate(-0.34 -0.73)"/></svg>