<svg id="Layer_1" data-name="Layer 1" xmlns="http://www.w3.org/2000/svg" viewBox="0 0 31.56 30.78"><defs><style>.cls-1{fill:#fff;fill-rule:evenodd;}</style></defs><title>github-icon-light</title><path class="cls-1" d="M16,.68a15.78,15.78,0,0,0-5,30.75c.79.14,1.08-.34,1.08-.76s0-1.37,0-2.68c-4.39,1-5.32-2.12-5.32-2.12A4.18,4.18,0,0,0,5,23.56c-1.43-1,.11-1,.11-1a3.31,3.31,0,0,1,2.42,1.63,3.36,3.36,0,0,0,4.59,1.31,3.37,3.37,0,0,1,1-2.11c-3.5-.4-7.19-1.75-7.19-7.8A6.1,6.1,0,0,1,7.56,11.4a5.68,5.68,0,0,1,.15-4.18S9,6.8,12.05,8.84a15,15,0,0,1,7.9,0c3-2,4.34-1.62,4.34-1.62a5.67,5.67,0,0,1,.16,4.18,6.09,6.09,0,0,1,1.62,4.23c0,6.06-3.69,7.4-7.2,7.79a3.77,3.77,0,0,1,1.07,2.92c0,2.11,0,3.81,0,4.33s.28.91,1.09.76A15.78,15.78,0,0,0,16,.68Z" transform="translate(-0.22 -0.68)"/></svg>